<?xml version="1.0" encoding="utf-8"?>
<!-- Generator: Adobe Illustrator 15.0.2, SVG Export Plug-In . SVG Version: 6.00 Build 0)  -->
<!DOCTYPE svg PUBLIC "-//W3C//DTD SVG 1.1//EN" "http://www.w3.org/Graphics/SVG/1.1/DTD/svg11.dtd">
<svg version="1.1" id="Layer_1" xmlns="http://www.w3.org/2000/svg" xmlns:xlink="http://www.w3.org/1999/xlink" x="0px" y="0px"
	 width="23.695px" height="16.095px" viewBox="0 0 23.695 16.095" enable-background="new 0 0 23.695 16.095" xml:space="preserve">
<g>
	<defs>
		<rect id="SVGID_1_" y="0" width="23.695" height="16.095"/>
	</defs>
	<clipPath id="SVGID_2_">
		<use xlink:href="#SVGID_1_"  overflow="visible"/>
	</clipPath>
	<path clip-path="url(#SVGID_2_)" fill="#92C7EA" d="M15.723,14.352c1.558-1.014,2.708-2.059,3.449-3.134s1.112-2.231,1.112-3.467
		c-0.494,0.272-0.988,0.476-1.483,0.612c-0.494,0.135-0.988,0.204-1.483,0.204c-0.988,0-1.803-0.377-2.447-1.131
		c-0.643-0.754-0.964-1.712-0.964-2.874c0-1.335,0.438-2.429,1.316-3.281C16.101,0.427,17.231,0,18.615,0
		c1.558,0,2.794,0.539,3.708,1.614c0.915,1.076,1.372,2.564,1.372,4.468c0,1.978-0.58,3.82-1.742,5.526s-2.855,3.201-5.081,4.487
		L15.723,14.352z M1.743,14.352c1.607-1.088,2.781-2.164,3.522-3.227c0.742-1.062,1.113-2.188,1.113-3.375
		C5.884,8.022,5.389,8.227,4.894,8.362C4.4,8.497,3.906,8.566,3.411,8.566c-0.988,0-1.804-0.377-2.447-1.131S0,5.724,0,4.562
		c0-1.335,0.445-2.429,1.335-3.281C2.224,0.427,3.35,0,4.709,0C6.266,0,7.49,0.539,8.381,1.614C9.27,2.689,9.716,4.178,9.716,6.082
		c0,2.003-0.576,3.851-1.725,5.544s-2.824,3.183-5.024,4.469L1.743,14.352z"/>
</g>
</svg>
