<?xml version="1.0" encoding="utf-8"?>
<!-- Generator: Adobe Illustrator 18.1.1, SVG Export Plug-In . SVG Version: 6.00 Build 0)  -->
<svg version="1.1" id="Layer_1" xmlns="http://www.w3.org/2000/svg" xmlns:xlink="http://www.w3.org/1999/xlink" x="0px" y="0px"
	 viewBox="-49 141 512 512" enable-background="new -49 141 512 512" xml:space="preserve">
<path fill="#515D67" d="M372,435.7c-6.8-6.7-22-10.3-45-10.6c-15.6-0.2-34.4,1.2-54.1,4c-8.8-5.1-17.9-10.6-25.1-17.3
	c-19.2-18-35.3-42.9-45.3-70.3c0.7-2.6,1.2-4.8,1.7-7.1c0,0,10.8-61.5,8-82.3c-0.4-2.9-0.6-3.7-1.4-5.9l-0.9-2.4
	c-2.9-6.8-8.7-14-17.8-13.6l-5.3-0.2l-0.1,0c-10.1,0-18.3,5.2-20.5,12.9c-6.6,24.2,0.2,60.4,12.5,107.4l-3.1,7.6
	c-8.8,21.4-19.8,43-29.5,62.1l-1.3,2.5c-10.2,20-19.5,37-27.9,51.4l-8.7,4.6c-0.6,0.3-15.5,8.2-19,10.3
	c-29.6,17.7-49.3,37.8-52.5,53.7c-1,5.1-0.3,11.6,5,14.6l8.4,4.2c3.6,1.8,7.5,2.8,11.4,2.8c21.1,0,45.6-26.3,79.3-85.2
	c39-12.7,83.3-23.2,122.2-29c29.6,16.7,66.1,28.3,89.1,28.3c4.1,0,7.6-0.4,10.5-1.1c4.4-1.2,8.1-3.7,10.4-7.1
	c4.5-6.7,5.4-16,4.2-25.4C376.7,441.6,374.4,438.1,372,435.7z M56.8,548c3.8-10.5,19.1-31.3,41.6-49.8c1.4-1.1,4.9-4.4,8.1-7.5
	C83,528.4,67.2,543.3,56.8,548z M190.2,240.8c6.8,0,10.6,17.1,11,33.1s-3.4,27.3-8.1,35.6c-3.9-12.3-5.7-31.8-5.7-44.5
	C187.4,265.1,187.1,240.8,190.2,240.8z M150.4,459.7c4.7-8.5,9.6-17.4,14.7-26.8c12.2-23.2,20-41.3,25.7-56.2
	c11.5,20.8,25.7,38.6,42.5,52.8c2.1,1.8,4.3,3.6,6.6,5.3C205.9,441.6,176.4,449.8,150.4,459.7z M365.5,457.8c-2.1,1.3-8,2-11.9,2
	c-12.4,0-27.6-5.6-49.1-14.8c8.2-0.6,15.8-0.9,22.5-0.9c12.4,0,16.1-0.1,28.2,3S367.5,456.5,365.5,457.8z M402.7,240.7l-71.4-71.4
	C315.7,153.7,285,141,263,141H23c-22,0-40,18-40,40v432c0,22,18,40,40,40h368c22,0,40-18,40-40V309C431,287,418.3,256.3,402.7,240.7
	z M380.1,263.3c1.6,1.6,3.1,3.5,4.6,5.7H303v-81.7c2.2,1.5,4.1,3.1,5.7,4.6L380.1,263.3z M399,613c0,4.3-3.7,8-8,8H23
	c-4.3,0-8-3.7-8-8V181c0-4.3,3.7-8,8-8h240c2.4,0,5.1,0.3,8,0.9V301h127.1c0.5,2.9,0.9,5.6,0.9,8V613z"/>
</svg>
