<?xml version="1.0" encoding="utf-8"?>
<!DOCTYPE svg PUBLIC "-//W3C//DTD SVG 1.1//EN" "http://www.w3.org/Graphics/SVG/1.1/DTD/svg11.dtd">
<svg version="1.1" id="Layer_1" xmlns="http://www.w3.org/2000/svg" xmlns:xlink="http://www.w3.org/1999/xlink" x="0px" y="0px"
   width="167.196px" height="166.674px" viewBox="0 0 167.196 166.674" enable-background="new 0 0 167.196 166.674" xml:space="preserve">
<style type="text/css">
	.st0{fill:#BFDCE8;}
	.st1{fill:#52B2D2;}
	.st2{fill:#FFFFFF;}
</style>
<g>
	<path class="st0" d="M25,99.2c0-8-4.1-14.5-9.1-14.5c-5,0-9.1,6.5-9.1,14.5s4.1,14.5,9.1,14.5C20.9,113.6,25,107.1,25,99.2"/>
	<path class="st0" d="M161.1,99.2c0-8-4.1-14.5-9.1-14.5c-5,0-9.1,6.5-9.1,14.5s4.1,14.5,9.1,14.5C157,113.6,161.1,107.1,161.1,99.2
		"/>
	<path d="M46.6,71.6c0-15.2-7.6-27.5-16.9-27.5S12.8,56.5,12.8,71.6c0,15.2,7.6,27.5,16.9,27.5S46.6,86.8,46.6,71.6"/>
	<path d="M155.2,71.6c0-15.2-7.6-27.5-16.9-27.5s-16.9,12.3-16.9,27.5c0,15.2,7.6,27.5,16.9,27.5S155.2,86.8,155.2,71.6"/>
	<path d="M167.2,29.5C167.2,13.2,129.8,0,83.6,0S0,13.2,0,29.5s37.4,29.5,83.6,29.5S167.2,45.9,167.2,29.5"/>
	<rect x="11.3" y="40.9" width="144.7" height="18.2"/>
	<path class="st0" d="M149.9,100c0-36.8-29.9-66.7-66.7-66.7c-36.8,0-66.7,29.9-66.7,66.7c0,36.8,29.9,66.7,66.7,66.7
		C120,166.7,149.9,136.8,149.9,100"/>
	<path d="M144.6,51.8c0,12.3-27.4,22.3-61.3,22.3c-33.9,0-61.3-10-61.3-22.3s27.4-22.3,61.3-22.3C117.2,29.5,144.6,39.5,144.6,51.8"
		/>
	<path class="st1" d="M27.7,95.4c-2.1-8.1-2.1-21.4,26.8-20.1s26.3,12.1,24.1,18.8c-2.1,6.7-31.1,35.2-44.2,17.5
		C31.4,107.6,28.9,100.2,27.7,95.4"/>
	<path class="st1" d="M140.6,95.4c2.1-8.1,2.1-21.4-26.8-20.1c-28.9,1.3-26.3,12.1-24.1,18.8c2.1,6.7,31.1,35.2,44.2,17.5
		C136.8,107.6,139.3,100.2,140.6,95.4"/>
	<rect x="76.7" y="84.7" class="st1" width="17.7" height="3.5"/>
	<rect x="67.9" y="77.9" class="st1" width="34.3" height="3.5"/>
	<polygon class="st1" points="35.9,89.3 19.3,80.5 20.3,77.4 37.4,86.5 	"/>
	<polygon class="st1" points="130.4,87.1 146.4,78.6 145.2,75.6 128.9,84.2 	"/>
	<rect x="25.8" y="44.1" class="st1" width="115.7" height="5.7"/>
	<path class="st2" d="M61.5,135.3c0,0,19.2,31.3,47.7-1.9L61.5,135.3z"/>
</g>
</svg>
