<?xml version="1.0" encoding="utf-8"?>
<!-- Generator: Adobe Illustrator 19.1.0, SVG Export Plug-In . SVG Version: 6.00 Build 0)  -->
<svg version="1.1" id="Layer_1" xmlns="http://www.w3.org/2000/svg" xmlns:xlink="http://www.w3.org/1999/xlink" x="0px" y="0px"
	 viewBox="0 0 22.4 25.7" style="enable-background:new 0 0 22.4 25.7;" xml:space="preserve">
<style type="text/css">
	.st0{fill:#FFFFFF;}
</style>
<path class="st0" d="M12.7,10.5v11.1h-12V5.9h8.1c0,0,0-0.1,0-0.1V3.3H1.2c-0.3,0-0.6,0.1-0.8,0.3C0.1,3.9,0,4.2,0,4.5v20.1
	c0,0.3,0.1,0.6,0.3,0.8c0.2,0.2,0.5,0.3,0.8,0.3h11.2c0.3,0,0.6-0.1,0.8-0.3c0.2-0.2,0.3-0.5,0.3-0.8V9.7L12.7,10.5z M6.9,24.5
	c-0.5,0-0.9-0.4-0.9-0.9c0-0.5,0.4-0.9,0.9-0.9c0.5,0,0.9,0.4,0.9,0.9C7.8,24.1,7.4,24.5,6.9,24.5z"/>
<path class="st0" d="M20.1,0h-8.4c-1.3,0-2.4,1.1-2.4,2.4V6c0,0.9,0.5,1.7,1.3,2.1l0,3.6l3.8-3.4h5.5c1.3,0,2.4-1.1,2.4-2.4V2.4
	C22.4,1.1,21.4,0,20.1,0z M21.6,5.9c0,0.8-0.7,1.5-1.5,1.5h-5.8l-2.7,2.4l0-2.3c-0.8-0.1-1.3-0.7-1.3-1.5V4.2V2.4V2.4
	c0-0.8,0.7-1.5,1.5-1.5h8.4c0.8,0,1.5,0.7,1.5,1.5V5.9z"/>
<g>
	<circle class="st0" cx="14.8" cy="4.2" r="0.6"/>
	<circle class="st0" cx="12.7" cy="4.2" r="0.6"/>
	<circle class="st0" cx="16.9" cy="4.2" r="0.6"/>
	<circle class="st0" cx="19" cy="4.2" r="0.6"/>
</g>
</svg>
