<?xml version="1.0" encoding="utf-8"?>
<!-- Generator: Adobe Illustrator 15.0.2, SVG Export Plug-In . SVG Version: 6.00 Build 0)  -->
<!DOCTYPE svg PUBLIC "-//W3C//DTD SVG 1.1//EN" "http://www.w3.org/Graphics/SVG/1.1/DTD/svg11.dtd">
<svg version="1.1" id="Layer_1" xmlns="http://www.w3.org/2000/svg" xmlns:xlink="http://www.w3.org/1999/xlink" x="0px" y="0px"
	 width="23.695px" height="16.095px" viewBox="0 0 23.695 16.095" enable-background="new 0 0 23.695 16.095" xml:space="preserve">
<g>
	<defs>
		<rect id="SVGID_1_" y="0" width="23.695" height="16.095"/>
	</defs>
	<clipPath id="SVGID_2_">
		<use xlink:href="#SVGID_1_"  overflow="visible"/>
	</clipPath>
	<path clip-path="url(#SVGID_2_)" fill="#92C7EA" d="M7.973,1.743C6.415,2.756,5.265,3.801,4.523,4.876S3.411,7.108,3.411,8.344
		c0.494-0.272,0.988-0.476,1.483-0.612c0.494-0.135,0.988-0.204,1.483-0.204c0.988,0,1.803,0.377,2.447,1.13
		c0.643,0.754,0.964,1.712,0.964,2.874c0,1.335-0.438,2.43-1.316,3.281c-0.878,0.854-2.009,1.281-3.393,1.281
		c-1.558,0-2.794-0.539-3.708-1.614C0.457,13.404,0,11.916,0,10.013c0-1.978,0.58-3.82,1.742-5.526S4.598,1.286,6.823,0L7.973,1.743
		z M21.952,1.743c-1.606,1.088-2.781,2.164-3.522,3.227c-0.742,1.062-1.113,2.188-1.113,3.375c0.494-0.272,0.99-0.476,1.484-0.612
		c0.494-0.135,0.988-0.204,1.483-0.204c0.987,0,1.804,0.377,2.446,1.131c0.644,0.754,0.965,1.711,0.965,2.873
		c0,1.336-0.445,2.43-1.335,3.281c-0.89,0.854-2.016,1.281-3.374,1.281c-1.558,0-2.781-0.539-3.673-1.614
		c-0.889-1.076-1.335-2.564-1.335-4.468c0-2.003,0.576-3.851,1.726-5.544S18.528,1.286,20.729,0L21.952,1.743z"/>
</g>
</svg>
