<?xml version="1.0" encoding="utf-8"?>
<!-- Generator: Adobe Illustrator 19.1.0, SVG Export Plug-In . SVG Version: 6.00 Build 0)  -->
<svg version="1.1" id="Layer_1" xmlns="http://www.w3.org/2000/svg" xmlns:xlink="http://www.w3.org/1999/xlink" x="0px" y="0px"
	 viewBox="0 0 32 32" style="enable-background:new 0 0 32 32;" xml:space="preserve">
<style type="text/css">
	.st0{fill:#FFFFFF;}
</style>
<path class="st0" d="M24.8,7.2c2.5,2.5,5.5,3.6,6.7,2.5c1.2-1.2,0.1-4.2-2.5-6.7l0,0c-2.5-2.5-5.5-3.6-6.7-2.5
	C21.2,1.6,22.3,4.6,24.8,7.2z M12.2,25.4l14.1-14.1c0.9,0.5,1.7,0.8,2.5,1L14,27.2L0,32l4.8-14L19.7,3.1c0.1,0.3,0.2,0.7,0.3,1
	c0.2,0.5,0.4,1,0.7,1.5L6.6,19.8l1.7,1.7L22,7.6c0.3,0.4,0.7,0.8,1.1,1.2c0.4,0.4,0.8,0.8,1.2,1.1L10.6,23.8L12.2,25.4z"/>
</svg>
