<?xml version="1.0" encoding="utf-8"?>
<!-- Generator: Adobe Illustrator 19.1.0, SVG Export Plug-In . SVG Version: 6.00 Build 0)  -->
<svg version="1.1" id="Layer_1" xmlns="http://www.w3.org/2000/svg" xmlns:xlink="http://www.w3.org/1999/xlink" x="0px" y="0px"
	 viewBox="0 0 32 24" style="enable-background:new 0 0 32 24;" xml:space="preserve">
<style type="text/css">
	.st0{fill:#FFFFFF;}
</style>
<path class="st0" d="M12,5c0,2.8,2.2,5,5,5c2.8,0,5-2.2,5-5s-2.2-5-5-5C14.2,0,12,2.2,12,5z M0,5c0,2.8,2.2,5,5,5c2.8,0,5-2.2,5-5
	S7.8,0,5,0C2.2,0,0,2.2,0,5z M24,15v-3c0-1.1-0.9-2-2-2h-5H5H2c-1.1,0-2,0.9-2,2v10c0,1.1,0.9,2,2,2h20c1.1,0,2-0.9,2-2v-3l8,5V10
	L24,15z M20,20H4v-6h16V20z"/>
</svg>
